<?xml version="1.0" standalone="no"?><!DOCTYPE svg PUBLIC "-//W3C//DTD SVG 1.1//EN" "http://www.w3.org/Graphics/SVG/1.1/DTD/svg11.dtd"><svg t="1488546460808" class="icon" style="" viewBox="0 0 1024 1024" version="1.1" xmlns="http://www.w3.org/2000/svg" p-id="2391" xmlns:xlink="http://www.w3.org/1999/xlink" width="200" height="200"><defs><style type="text/css"></style></defs><path d="M463.172945 151.712307c0 2.384303 0 4.408403 0 6.431479 0.002047 125.686561 0.028653 251.374144-0.098237 377.060705-0.004093 4.333702 1.36816 7.223518 4.339842 10.191106 90.508363 90.37431 180.938955 180.827415 271.402293 271.247774 1.079588 1.079588 2.434445 1.883907 3.63683 2.798742-98.18623 104.910375-271.820825 154.99098-431.28877 87.278809C128.430044 829.128731 40.639582 641.207757 78.964446 461.536678 120.021537 269.051759 292.125267 149.263535 463.172945 151.712307z" p-id="2392" fill="#1296db"></path><path d="M528.83441 478.284107c0-130.788765 0-261.19993 0-391.605979 184.956456-8.04421 392.537188 150.882406 392.443044 391.605979C790.628882 478.284107 659.980309 478.284107 528.83441 478.284107z" p-id="2393" fill="#1296db"></path><path d="M838.801021 822.317605c-93.057419-92.472088-185.892781-184.725188-279.400454-277.645484 132.063805 0 263.186168 0 394.307508 0C956.346157 617.118106 929.541675 733.042325 838.801021 822.317605z" p-id="2394" fill="#1296db"></path></svg>