<?xml version="1.0" standalone="no"?><!DOCTYPE svg PUBLIC "-//W3C//DTD SVG 1.1//EN" "http://www.w3.org/Graphics/SVG/1.1/DTD/svg11.dtd"><svg t="1488547295096" class="icon" style="" viewBox="0 0 1024 1024" version="1.1" xmlns="http://www.w3.org/2000/svg" p-id="3091" xmlns:xlink="http://www.w3.org/1999/xlink" width="200" height="200"><defs><style type="text/css"></style></defs><path d="M190.924677 107.570439l176.285239 0c36.46024 0 65.94361 29.308009 65.94361 65.702294l0 196.363865c0 36.306864-29.52736 65.701814-65.94361 65.701814l-176.285239 0c-36.483224 0-65.965116-29.30653-65.965116-65.701814l0-196.363865C124.959561 136.966888 154.508907 107.570439 190.924677 107.570439zM80.931353 369.636598c0 60.497263 49.190269 109.402225 109.993325 109.402225l176.285239 0c60.759085 0 109.97032-48.992923 109.97032-109.402225l0-196.363865c0-60.496264-49.167285-109.358255-109.97032-109.358255l-176.285239 0c-60.759085 0-109.993325 48.992403-109.993325 109.358255L80.931353 369.636598zM653.222179 107.570439l176.284699 0c36.482765 0 65.965116 29.308009 65.965116 65.702294l0 196.363865c0 36.306864-29.526381 65.701814-65.965116 65.701814l-176.284699 0c-36.436776 0-65.921165-29.30653-65.921165-65.701814l0-196.363865C587.301014 136.966888 616.785403 107.570439 653.222179 107.570439zM543.252279 369.636598c0 60.497263 49.167285 109.402225 109.9699 109.402225l176.284699 0c60.760604 0 110.013851-48.992923 110.013851-109.402225l0-196.363865c0-60.496264-49.209296-109.358255-110.013851-109.358255l-176.284699 0c-60.758606 0-109.9699 48.992403-109.9699 109.358255L543.252279 369.636598zM190.924677 588.310657l176.285239 0c36.46024 0 65.94361 29.30751 65.94361 65.700295l0 196.321434c0 36.306784-29.52736 65.702254-65.94361 65.702254l-176.285239 0c-36.483224 0-65.965116-29.30747-65.965116-65.702254l0-196.321434C124.959561 617.705088 154.508907 588.310657 190.924677 588.310657zM80.931353 850.332367c0 60.539654 49.190269 109.446195 109.993325 109.446195l176.285239 0c60.759085 0 109.97032-48.994442 109.97032-109.446195l0-196.321434c0-60.539734-49.167285-109.357256-109.97032-109.357256l-176.285239 0c-60.759085 0-109.993325 48.991384-109.993325 109.357256L80.931353 850.332367zM827.540172 916.034621l-5.599244 0-19.990746 0-60.586662 0-88.18537 0c-36.436736 0-65.877135-29.30747-65.877135-65.702254l0-196.321434c0-36.305845 29.48439-65.700295 65.921165-65.700295l176.284699 0c36.482765 0 65.965116 29.30751 65.965116 65.614333l0 170.248711 0 26.332547c0 11.987033 9.842467 21.78453 22.004381 21.78453 12.159876 0 22.044354-9.797497 22.044354-21.78453l0-26.332547 0-170.248711c0-60.453772-49.209296-109.271314-110.013851-109.271314l-176.284699 0c-60.758606 0-109.9699 48.991384-109.9699 109.357256l0 196.321434c0 60.539654 49.122315 109.446195 109.92587 109.446195l88.18537 0 60.586662 0 19.990746 0 5.599244 0 1.485013 0c12.642608 0 22.485075-9.798517 22.485075-21.871491 0-12.073914-9.842467-21.87243-22.003362-21.87243L827.540172 916.034621z" p-id="3092" fill="#2c2c2c"></path></svg>